HIERARCHY
ROOT Hips
{
	OFFSET 0.000000 0.000000 0.000000
	CHANNELS 6 Xposition Yposition Zposition Zrotation Yrotation Xrotation 
	JOINT LHipJoint
	{
		OFFSET 0.000000 0.000000 0.000000
		CHANNELS 3 Zrotation Yrotation Xrotation
		JOINT LeftUpLeg
		{
			OFFSET 1.363060 -1.794630 0.839290
			CHANNELS 3 Zrotation Yrotation Xrotation
			JOINT LeftLeg
			{
				OFFSET 2.448110 -6.726130 0.000000
				CHANNELS 3 Zrotation Yrotation Xrotation
				JOINT LeftFoot
				{
					OFFSET 2.562200 -7.039590 0.000000
					CHANNELS 3 Zrotation Yrotation Xrotation
					JOINT LeftToeBase
					{
						OFFSET 0.157640 -0.433110 2.322550
						CHANNELS 3 Zrotation Yrotation Xrotation
						End Site
						{
							OFFSET 0.000000 0.000000 0.000000
						}
					}
				}
			}
		}
	}
	JOINT RHipJoint
	{
		OFFSET 0.000000 0.000000 0.000000
		CHANNELS 3 Zrotation Yrotation Xrotation
		JOINT RightUpLeg
		{
			OFFSET -1.305520 -1.794630 0.839290
			CHANNELS 3 Zrotation Yrotation Xrotation
			JOINT RightLeg
			{
				OFFSET -2.542530 -6.985550 0.000000
				CHANNELS 3 Zrotation Yrotation Xrotation
				JOINT RightFoot
				{
					OFFSET -2.568260 -7.056230 0.000000
					CHANNELS 3 Zrotation Yrotation Xrotation
					JOINT RightToeBase
					{
						OFFSET -0.164730 -0.452590 2.363150
						CHANNELS 3 Zrotation Yrotation Xrotation
						End Site
						{
							OFFSET 0.000000 0.000000 0.000000
						}
					}
				}
			}
		}
	}
	JOINT LowerBack
	{
		OFFSET 0.000000 0.000000 0.000000
		CHANNELS 3 Zrotation Yrotation Xrotation
		JOINT Spine
		{
			OFFSET 0.028270 2.035590 -0.193380
			CHANNELS 3 Zrotation Yrotation Xrotation
			JOINT Spine1
			{
				OFFSET 0.056720 2.048850 -0.042750
				CHANNELS 3 Zrotation Yrotation Xrotation
				JOINT Neck
				{
					OFFSET 0.000000 0.000000 0.000000
					CHANNELS 3 Zrotation Yrotation Xrotation
					JOINT Neck1
					{
						OFFSET -0.054170 1.746240 0.172020
						CHANNELS 3 Zrotation Yrotation Xrotation
						JOINT Head
						{
							OFFSET 0.104070 1.761360 -0.123970
							CHANNELS 3 Zrotation Yrotation Xrotation
							End Site
							{
								OFFSET 0.000000 0.000000 0.000000
							}
						}
					}
				}
				JOINT LeftShoulder
				{
					OFFSET 0.000000 0.000000 0.000000
					CHANNELS 3 Zrotation Yrotation Xrotation
					JOINT LeftArm
					{
						OFFSET 3.362410 1.200890 -0.311210
						CHANNELS 3 Zrotation Yrotation Xrotation
						JOINT LeftForeArm
						{
							OFFSET 4.983000 -0.000000 -0.000000
							CHANNELS 3 Zrotation Yrotation Xrotation
							JOINT LeftHand
							{
								OFFSET 3.483560 -0.000000 -0.000000
								CHANNELS 3 Zrotation Yrotation Xrotation
								JOINT LeftFingerBase
								{
									OFFSET 0.000000 0.000000 0.000000
									CHANNELS 3 Zrotation Yrotation Xrotation
									JOINT LeftHandIndex1
									{
										OFFSET 0.715260 -0.000000 -0.000000
										CHANNELS 3 Zrotation Yrotation Xrotation
										End Site
										{
											OFFSET 0.000000 0.000000 0.000000
										}
									}
								}
								JOINT LThumb
								{
									OFFSET 0.000000 0.000000 0.000000
									CHANNELS 3 Zrotation Yrotation Xrotation
									End Site
									{
										OFFSET 0.000000 0.000000 0.000000
									}
								}
							}
						}
					}
				}
				JOINT RightShoulder
				{
					OFFSET 0.000000 0.000000 0.000000
					CHANNELS 3 Zrotation Yrotation Xrotation
					JOINT RightArm
					{
						OFFSET -3.136600 1.374050 -0.404650
						CHANNELS 3 Zrotation Yrotation Xrotation
						JOINT RightForeArm
						{
							OFFSET -5.241900 -0.000000 -0.000000
							CHANNELS 3 Zrotation Yrotation Xrotation
							JOINT RightHand
							{
								OFFSET -3.444170 -0.000000 -0.000000
								CHANNELS 3 Zrotation Yrotation Xrotation
								JOINT RightFingerBase
								{
									OFFSET 0.000000 0.000000 0.000000
									CHANNELS 3 Zrotation Yrotation Xrotation
									JOINT RightHandIndex1
									{
										OFFSET -0.622530 -0.000000 -0.000000
										CHANNELS 3 Zrotation Yrotation Xrotation
										End Site
										{
											OFFSET 0.000000 0.000000 0.000000
										}
									}
								}
								JOINT RThumb
								{
									OFFSET 0.000000 0.000000 0.000000
									CHANNELS 3 Zrotation Yrotation Xrotation
									End Site
									{
										OFFSET 0.000000 0.000000 0.000000
									}
								}
							}
						}
					}
				}
			}
		}
	}
}
MOTION
Frames: 12
Frame Time: 0.008333
7.136410 16.195480 1.172914 48.751081 -85.474455 -26.887167 -12.413165 3.011207 1.019053 -5.357272 3.483493 -28.652523 2.408895 3.618244 81.006326 3.176591 20.148667 5.435108 4.110300 0.000000 -37.854500 9.428351 -2.034124 2.537283 10.419263 0.942594 -27.119653 1.769796 -1.736656 41.601737 -3.882099 -10.089507 -30.904165 4.587300 0.000000 -36.151000 4.044606 -1.098916 -4.609833 1.124822 -1.397803 -4.297580 -1.425949 -1.397526 -2.654296 -1.649535 -4.962838 -5.777903 0.239031 -0.015062 0.547980 0.000000 0.000000 0.000000 14.476784 3.247406 2.515773 15.198350 -46.802636 -38.479565 0.387511 -64.593097 0.076617 -6.895096 1.122938 -0.032767 0.244194 0.584791 -0.000000 0.000000 0.000000 0.000000 0.000000 0.000000 0.000000 -12.214021 1.499813 -3.283769 0.660675 57.407256 -55.873239 -2.696661 51.299102 -0.244913 -21.263021 13.078293 -2.663990 0.260712 -0.857843 -0.000000 0.000000 0.000000 0.000000 0.000000 0.000000 0.000000 
6.864610 16.294897 1.143736 49.568206 -85.239856 -27.469809 -12.237626 2.896649 1.148093 -6.099238 2.934086 -30.199719 2.304272 3.592154 80.200278 3.079846 19.522426 4.118620 3.602600 -0.000000 -37.364000 9.545379 -2.064203 2.513216 10.021914 0.675075 -25.180066 1.752616 -1.492788 39.089342 -3.660335 -9.771510 -28.895728 4.045500 -0.000000 -38.737500 3.435585 -1.000653 -4.704342 1.033940 -1.251156 -4.267223 -1.226612 -1.265786 -2.425223 -1.547453 -5.037478 -5.929376 0.330483 -0.005504 0.506463 0.000000 0.000000 0.000000 14.587178 3.485898 2.227747 15.713823 -47.212081 -40.869906 0.470512 -63.755134 0.060577 -5.355291 0.748238 -0.006282 0.217200 0.603509 0.000000 0.000000 0.000000 0.000000 0.000000 0.000000 0.000000 -12.449928 1.572479 -2.704210 -0.532053 55.591980 -53.582798 -2.449905 51.276871 -0.208453 -18.260381 11.331670 -1.984774 0.216567 -0.813613 -0.000000 0.000000 0.000000 0.000000 0.000000 0.000000 0.000000 
6.588688 16.403763 1.117951 49.914979 -85.041609 -27.566729 -12.049581 2.782834 1.296027 -6.798127 2.346864 -31.697236 2.170711 3.549550 79.080510 2.981301 18.868420 2.826430 3.122601 -0.000000 -36.804000 9.665923 -2.120877 2.482513 9.659114 0.334428 -23.285643 1.723667 -1.262661 36.472169 -3.372521 -9.322148 -26.365002 3.375499 -0.000000 -42.197099 2.891315 -0.903599 -4.810854 0.954878 -1.110504 -4.241721 -1.030672 -1.139870 -2.203952 -1.424578 -5.125592 -6.093173 0.422903 0.004461 0.460844 0.000000 0.000000 0.000000 14.661357 3.758282 1.962594 16.200598 -47.667284 -43.145702 0.554154 -62.847927 0.043462 -3.803963 0.287063 0.012291 0.188113 0.623200 0.000000 0.000000 0.000000 0.000000 0.000000 0.000000 0.000000 -12.659195 1.615127 -2.143968 -1.473511 53.843494 -51.110064 -2.205432 51.414143 -0.174281 -15.491587 9.600341 -1.431948 0.175041 -0.768570 -0.000000 0.000000 0.000000 0.000000 0.000000 0.000000 0.000000 
6.308771 16.521242 1.095559 49.865601 -84.879664 -27.266891 -11.852248 2.672426 1.458976 -7.443173 1.735895 -33.115455 2.009364 3.490995 77.637140 2.883828 18.200169 1.603173 2.686000 -0.000000 -36.208500 9.790591 -2.207543 2.437396 9.329563 -0.106017 -21.442463 1.683427 -1.054663 33.771511 -3.019302 -8.744490 -23.261012 2.598000 0.000000 -46.501200 2.411104 -0.810731 -4.918884 0.886908 -0.978831 -4.219141 -0.842589 -1.022490 -1.992524 -1.273008 -5.233319 -6.262651 0.512452 0.014426 0.412917 0.000000 0.000000 0.000000 14.697197 4.057743 1.717574 16.635209 -48.163418 -45.309132 0.638912 -61.909774 0.025653 -2.262079 -0.240321 0.019156 0.157716 0.643729 0.000000 0.000000 0.000000 0.000000 0.000000 0.000000 0.000000 -12.817941 1.622640 -1.605494 -2.222611 52.197932 -48.509302 -1.967863 51.679861 -0.143032 -12.975748 7.916350 -0.996021 0.137042 -0.723539 -0.000000 0.000000 0.000000 0.000000 0.000000 0.000000 0.000000 
6.025219 16.646232 1.076285 49.528572 -84.751810 -26.693387 -11.646774 2.568795 1.633185 -8.034562 1.114811 -34.426158 1.822383 3.416054 75.855648 2.790815 17.535809 0.513629 2.311900 0.000001 -35.769400 9.922502 -2.324388 2.370727 9.022732 -0.668558 -19.663273 1.632514 -0.878459 31.026856 -2.608485 -8.045778 -19.562147 1.752700 -0.000000 -51.475901 1.985876 -0.724984 -5.018200 0.827536 -0.858469 -4.197785 -0.666621 -0.915781 -1.793635 -1.085871 -5.364988 -6.432189 0.596235 0.024068 0.364233 0.000000 0.000000 0.000000 14.697487 4.376875 1.490041 16.997626 -48.694158 -47.369181 0.724856 -60.975792 0.007641 -0.758168 -0.802619 0.011614 0.127022 0.664606 -0.000000 0.000000 0.000000 0.000000 0.000000 0.000000 0.000000 -12.908519 1.591442 -1.092410 -2.820112 50.688946 -45.830872 -1.741623 52.038350 -0.115079 -10.716193 6.300592 -0.662597 0.103131 -0.679245 -0.000000 0.000000 0.000000 0.000000 0.000000 0.000000 0.000000 
5.738429 16.777299 1.059521 49.061330 -84.653227 -26.013242 -11.433002 2.476628 1.813970 -8.584594 0.499011 -35.604440 1.611986 3.324660 73.726947 2.703328 16.882428 -0.417267 2.004200 0.000000 -35.405900 10.066294 -2.468223 2.277763 8.718233 -1.364063 -17.967495 1.571616 -0.743719 28.300220 -2.157305 -7.235757 -15.295313 0.900000 0.000000 -56.760800 1.598214 -0.649161 -5.099449 0.772716 -0.750941 -4.176082 -0.505866 -0.821192 -1.609351 -0.857382 -5.521402 -6.597740 0.672334 0.033157 0.315904 0.000000 0.000000 0.000000 14.670461 4.710024 1.277779 17.274468 -49.253178 -49.345008 0.811794 -60.073273 -0.010030 0.674577 -1.362573 -0.010128 0.097140 0.685109 -0.000000 0.000000 0.000000 0.000000 0.000000 0.000000 0.000000 -12.918956 1.521071 -0.607991 -3.295482 49.341841 -43.122140 -1.530041 52.454627 -0.090533 -8.703861 4.761481 -0.415083 0.073497 -0.636168 -0.000000 0.000000 0.000000 0.000000 0.000000 0.000000 0.000000 
5.448774 16.912585 1.044533 48.650827 -84.577123 -25.416606 -11.209494 2.400329 1.998862 -9.114499 -0.103619 -36.628910 1.381294 3.215244 71.238654 2.622736 16.251337 -1.144475 1.771500 0.000000 -35.307699 10.227421 -2.632169 2.155967 8.388618 -2.194501 -16.384768 1.501247 -0.658575 25.677943 -1.691095 -6.319211 -10.537548 0.116101 -0.000000 -61.928501 1.222736 -0.586137 -5.156981 0.716829 -0.657241 -4.153049 -0.362582 -0.739773 -1.440739 -0.581929 -5.700215 -6.757388 0.739137 0.041528 0.268460 0.000000 0.000000 0.000000 14.630341 5.052804 1.078829 17.457141 -49.834476 -51.263139 0.899511 -59.219891 -0.026842 2.006526 -1.878101 -0.043668 0.069018 0.704347 -0.000000 0.000000 0.000000 0.000000 0.000000 0.000000 0.000000 -12.838051 1.414019 -0.153753 -3.678068 48.170598 -40.423618 -1.335107 52.893404 -0.069421 -6.934089 3.305202 -0.238380 0.048315 -0.594704 -0.000000 0.000000 0.000000 0.000000 0.000000 0.000000 0.000000 
5.156999 17.050029 1.030519 48.470839 -84.515654 -25.079412 -10.975021 2.343103 2.185584 -9.648041 -0.687856 -37.485717 1.133238 3.086935 68.388492 2.548360 15.643781 -1.661269 1.610300 0.000000 -35.392900 10.409163 -2.805838 2.006033 8.007867 -3.145492 -14.949442 1.421257 -0.627071 23.263999 -1.242617 -5.299941 -5.424944 -0.514700 -0.000000 -66.508600 0.833373 -0.538524 -5.188104 0.654391 -0.577988 -4.128308 -0.237270 -0.672236 -1.288632 -0.257261 -5.894745 -6.910882 0.796041 0.049119 0.221969 0.000000 0.000000 0.000000 14.592523 5.401314 0.892330 17.546603 -50.432129 -53.158594 0.987882 -58.422940 -0.042308 3.209179 -2.312425 -0.084002 0.043493 0.721512 -0.000000 0.000000 0.000000 0.000000 0.000000 0.000000 0.000000 -12.662923 1.277179 0.269065 -3.987332 47.175901 -37.770706 -1.157687 53.327682 -0.051628 -5.397033 1.933105 -0.118091 0.027535 -0.555153 -0.000000 0.000000 0.000000 0.000000 0.000000 0.000000 0.000000 
4.863718 17.187313 1.016812 48.645283 -84.461665 -25.120674 -10.729549 2.306038 2.373776 -10.202574 -1.254449 -38.169515 0.870974 2.938692 65.179511 2.479003 15.059579 -1.961499 1.517000 -0.000001 -35.661199 10.610806 -2.976253 1.832563 7.559428 -4.184197 -13.695151 1.330586 -0.646342 21.164522 -0.847338 -4.187249 -0.146373 -0.915900 -0.000000 -70.125000 0.409182 -0.508118 -5.195135 0.581159 -0.513393 -4.102321 -0.129060 -0.618881 -1.152927 0.115417 -6.095490 -7.059685 0.842941 0.055945 0.176003 0.000000 0.000000 0.000000 14.571097 5.753013 0.718610 17.552752 -51.041047 -55.071919 1.076920 -57.679949 -0.056050 4.262443 -2.635115 -0.125128 0.021094 0.735941 0.000000 0.000000 0.000000 0.000000 0.000000 0.000000 0.000000 -12.396240 1.120473 0.660402 -4.240129 46.345742 -35.192159 -0.997498 53.737908 -0.036981 -4.083671 0.649861 -0.041818 0.011051 -0.517847 -0.000000 0.000000 0.000000 0.000000 0.000000 0.000000 0.000000 
4.569421 17.321994 1.003045 49.210349 -84.410891 -25.566093 -10.475163 2.288476 2.564383 -10.783986 -1.807743 -38.683730 0.597216 2.770325 61.626113 2.412800 14.495856 -2.055600 1.484300 0.000001 -36.025400 10.826043 -3.129403 1.643986 7.042581 -5.257753 -12.642598 1.227732 -0.705359 19.468240 -0.536980 -3.013941 5.062955 -1.042000 0.000001 -72.531300 -0.060436 -0.495500 -5.184732 0.495274 -0.463255 -4.076330 -0.035714 -0.579548 -1.033056 0.529751 -6.290621 -7.206025 0.880619 0.062102 0.129902 0.000000 0.000000 0.000000 14.574483 6.106011 0.559584 17.496600 -51.658519 -57.047483 1.166767 -56.980149 -0.067771 5.149704 -2.832761 -0.161344 0.002235 0.747336 0.000000 0.000000 0.000000 0.000000 0.000000 0.000000 0.000000 -12.050505 0.956469 1.020211 -4.441976 45.657977 -32.711940 -0.853538 54.116894 -0.025191 -2.977390 -0.539797 0.001444 -0.001478 -0.483097 -0.000000 0.000000 0.000000 0.000000 0.000000 0.000000 0.000000 
4.275040 17.451782 0.989264 50.077245 -84.372535 -26.316871 -10.217856 2.285823 2.756603 -11.371919 -2.344319 -39.043675 0.314572 2.582455 57.748610 2.347028 13.946524 -1.942502 1.507700 -0.000000 -36.701000 11.040965 -3.253845 1.452965 6.484942 -6.277709 -11.797852 1.110374 -0.789368 18.240011 -0.330606 -1.850810 9.978159 -0.905799 -0.000000 -73.777401 -0.564138 -0.497107 -5.164787 0.399330 -0.425021 -4.051487 0.044851 -0.551588 -0.927480 0.976979 -6.469831 -7.353888 0.909180 0.067671 0.082462 0.000000 0.000000 0.000000 14.602223 6.461291 0.417587 17.413842 -52.279783 -59.136854 1.258022 -56.308050 -0.077724 5.901505 -2.879984 -0.188451 -0.014005 0.755266 -0.000000 0.000000 0.000000 0.000000 0.000000 0.000000 0.000000 -11.636511 0.798598 1.351297 -4.628855 45.082126 -30.346521 -0.724092 54.455429 -0.016150 -2.083454 -1.609160 0.020892 -0.009892 -0.451564 -0.000000 0.000000 0.000000 0.000000 0.000000 0.000000 0.000000 
3.980845 17.574424 0.975508 51.171689 -84.344519 -27.290671 -9.961285 2.296511 2.952948 -11.955185 -2.873754 -39.262378 0.022347 2.376292 53.587015 2.278931 13.404034 -1.680605 1.569201 0.000000 -37.224900 11.244489 -3.340644 1.267189 5.907217 -7.188934 -11.140798 0.979491 -0.881402 17.505209 -0.228592 -0.794395 14.351013 -0.580300 0.000001 -73.920500 -1.096521 -0.511502 -5.142721 0.295280 -0.397621 -4.029122 0.116494 -0.533916 -0.835515 1.442558 -6.620578 -7.505238 0.931152 0.072880 0.033094 0.000000 0.000000 0.000000 14.649365 6.817135 0.297549 17.347777 -52.906332 -61.385164 1.350885 -55.641770 -0.085712 6.499913 -2.814026 -0.204549 -0.027082 0.760476 -0.000000 0.000000 0.000000 0.000000 0.000000 0.000000 0.000000 -11.183991 0.660671 1.651993 -4.772558 44.587661 -28.116286 -0.608127 54.770089 -0.009263 -1.355611 -2.559764 0.025030 -0.015342 -0.423371 0.000000 0.000000 0.000000 0.000000 0.000000 0.000000 0.000000 
